<?xml version="1.0" standalone="no"?>
<!DOCTYPE svg PUBLIC "-//W3C//DTD SVG 20010904//EN"
 "http://www.w3.org/TR/2001/REC-SVG-20010904/DTD/svg10.dtd">
<svg version="1.0" xmlns="http://www.w3.org/2000/svg"
 width="768.000000pt" height="768.000000pt" viewBox="0 0 768.000000 768.000000"
 preserveAspectRatio="xMidYMid meet">
<metadata>
Created by potrace 1.11, written by Peter Selinger 2001-2013
</metadata>
<g transform="translate(0.000000,768.000000) scale(0.100000,-0.100000)"
fill="#000000" stroke="none">
<path d="M0 3840 l0 -3840 3840 0 3840 0 0 3840 0 3840 -3840 0 -3840 0 0
-3840z m3990 3085 c0 -8 -4 -15 -9 -15 -6 0 -7 -16 -4 -35 5 -34 5 -35 -26
-35 -27 0 -31 4 -31 26 0 17 6 28 20 31 11 3 20 14 20 24 0 11 7 19 15 19 8 0
15 -7 15 -15z m50 -81 c0 -8 -4 -12 -10 -9 -5 3 -10 10 -10 16 0 5 5 9 10 9 6
0 10 -7 10 -16z m90 -103 c0 -5 -7 -11 -15 -15 -9 -3 -15 0 -15 9 0 8 7 15 15
15 8 0 15 -4 15 -9z m294 -10 c10 -16 -5 -41 -24 -41 -23 0 -34 16 -26 35 6
16 42 20 50 6z m-322 -76 c7 -32 0 -37 -23 -17 -24 21 -24 42 0 42 12 0 20 -9
23 -25z m58 -10 c0 -8 -4 -15 -10 -15 -5 0 -10 7 -10 15 0 8 5 15 10 15 6 0
10 -7 10 -15z m16 -52 c-10 -10 -19 5 -10 18 6 11 8 11 12 0 2 -7 1 -15 -2
-18z m54 -53 c0 -5 -2 -10 -4 -10 -3 0 -8 5 -11 10 -3 6 -1 10 4 10 6 0 11 -4
11 -10z m-13 -106 c-9 -9 -28 6 -21 18 4 6 10 6 17 -1 6 -6 8 -13 4 -17z m73
11 c0 -8 -4 -15 -9 -15 -13 0 -22 16 -14 24 11 11 23 6 23 -9z m97 -91 c7 -18
-6 -45 -24 -51 -6 -2 -18 3 -27 12 -12 12 -13 21 -6 36 13 23 48 25 57 3z m52
-203 c33 -25 19 -76 -15 -53 -13 8 -27 72 -16 72 4 0 18 -9 31 -19z m-159 -89
c0 -13 -12 -22 -22 -16 -10 6 -1 24 13 24 5 0 9 -4 9 -8z m110 -13 c0 -25 -33
-22 -38 4 -2 12 3 17 17 17 15 0 21 -6 21 -21z m-686 -126 c7 -18 -10 -43 -29
-43 -7 0 -18 7 -25 15 -10 13 -10 19 5 35 18 20 40 17 49 -7z m401 8 c7 -12
-12 -24 -25 -16 -11 7 -4 25 10 25 5 0 11 -4 15 -9z m275 -25 c0 -3 -4 -8 -10
-11 -5 -3 -10 -1 -10 4 0 6 5 11 10 11 6 0 10 -2 10 -4z m-140 -66 c0 -12 -7
-20 -17 -20 -9 0 -24 -7 -33 -15 -21 -19 -50 -10 -50 15 0 20 23 32 44 24 8
-3 17 -1 21 5 11 18 35 12 35 -9z m-202 -92 c-6 -18 -28 -21 -28 -4 0 9 7 16
16 16 9 0 14 -5 12 -12z m-243 -33 c0 -13 -8 -21 -22 -23 -19 -3 -23 1 -23 23
0 22 4 26 23 23 14 -2 22 -10 22 -23z m153 -69 c-4 -25 -36 -34 -44 -12 -8 21
13 46 32 39 8 -3 14 -15 12 -27z m-624 -32 c8 -21 -1 -34 -24 -34 -20 0 -30
17 -22 38 6 17 39 15 46 -4z m73 -30 c8 -21 -13 -42 -28 -27 -13 13 -5 43 11
43 6 0 13 -7 17 -16z m143 -9 c0 -8 -4 -15 -9 -15 -13 0 -22 16 -14 24 11 11
23 6 23 -9z m-323 -81 c8 -21 -13 -42 -28 -27 -13 13 -5 43 11 43 6 0 13 -7
17 -16z m121 -102 c3 -16 -2 -22 -16 -22 -22 0 -32 17 -24 38 7 20 37 9 40
-16z m68 7 c10 -17 -13 -36 -27 -22 -12 12 -4 33 11 33 5 0 12 -5 16 -11z
m-146 -20 c0 -5 -7 -9 -15 -9 -15 0 -20 12 -9 23 8 8 24 -1 24 -14z m455 -29
c0 -18 -6 -26 -23 -28 -13 -2 -25 3 -28 12 -10 26 4 48 28 44 17 -2 23 -10 23
-28z m-505 0 c0 -13 -7 -20 -20 -20 -13 0 -20 7 -20 20 0 13 7 20 20 20 13 0
20 -7 20 -20z m350 -66 c0 -19 -28 -30 -42 -16 -8 8 -8 15 1 26 14 17 41 10
41 -10z m220 -59 c0 -27 -17 -36 -42 -23 -23 11 -23 34 -1 46 24 14 43 4 43
-23z m-582 -38 c4 -20 -25 -34 -40 -19 -15 15 -1 44 19 40 10 -2 19 -11 21
-21z m930 -130 c3 -26 1 -28 -25 -25 -31 3 -44 35 -21 49 23 15 43 5 46 -24z
m-650 -35 c4 -28 -24 -40 -45 -19 -14 13 -14 19 -3 32 18 22 44 15 48 -13z
m316 -35 c9 -15 7 -21 -8 -32 -35 -26 -74 13 -44 43 16 16 38 12 52 -11z
m-147 -3 c3 -8 -2 -23 -11 -32 -15 -15 -17 -15 -33 0 -13 14 -14 20 -3 32 16
20 39 20 47 0z m-82 -64 c3 -5 1 -10 -4 -10 -6 0 -11 5 -11 10 0 6 2 10 4 10
3 0 8 -4 11 -10z m451 -51 c3 -6 0 -17 -8 -25 -12 -12 -17 -12 -32 -1 -11 8
-16 19 -12 25 9 15 43 15 52 1z m228 -60 c-3 -5 -10 -7 -15 -3 -5 3 -7 10 -3
15 3 5 10 7 15 3 5 -3 7 -10 3 -15z m66 1 c0 -5 -4 -10 -10 -10 -5 0 -10 5
-10 10 0 6 5 10 10 10 6 0 10 -4 10 -10z m-220 -10 c0 -5 -2 -10 -4 -10 -3 0
-8 5 -11 10 -3 6 -1 10 4 10 6 0 11 -4 11 -10z m178 -21 c-2 -6 -8 -10 -13
-10 -5 0 -11 4 -13 10 -2 6 4 11 13 11 9 0 15 -5 13 -11z m277 -39 c4 -6 1
-18 -6 -26 -11 -13 -14 -13 -27 0 -8 8 -11 19 -8 25 9 14 33 14 41 1z m-235
-50 c0 -5 -4 -10 -10 -10 -5 0 -10 5 -10 10 0 6 5 10 10 10 6 0 10 -4 10 -10z
m-1435 -148 c5 -19 9 -21 25 -12 25 14 37 13 22 -2 -16 -16 -15 -28 3 -28 8 0
15 -4 15 -10 0 -5 -7 -10 -15 -10 -18 0 -20 -21 -2 -39 10 -11 8 -11 -11 -1
-13 6 -27 9 -30 5 -4 -4 -10 -41 -13 -83 l-6 -77 -1 77 c-2 72 -12 102 -27 78
-3 -5 -11 -10 -16 -10 -5 0 -2 11 7 25 16 24 16 25 -7 25 -23 1 -23 1 -5 15
10 8 16 20 13 28 -4 11 0 13 14 10 17 -5 19 1 20 43 1 31 3 38 6 19 2 -16 6
-40 8 -53z m1320 47 c0 -7 -8 -15 -17 -17 -18 -3 -25 18 -11 32 10 10 28 1 28
-15z m671 -54 c13 8 24 11 24 6 0 -5 -4 -13 -10 -16 -15 -9 -12 -25 5 -25 8 0
15 -4 15 -10 0 -5 -7 -10 -15 -10 -18 0 -20 -21 -2 -39 10 -11 8 -11 -11 -1
-13 6 -26 9 -30 6 -3 -4 -9 -39 -12 -79 l-7 -72 -2 71 c0 39 -4 74 -8 77 -3 4
-15 0 -25 -10 -10 -9 -18 -11 -18 -6 0 6 7 16 15 23 22 18 19 30 -7 30 -22 1
-22 1 -4 15 11 8 16 20 12 30 -4 13 -1 15 14 10 17 -6 20 -2 21 32 l1 38 10
-43 c9 -43 10 -43 34 -27z m-368 12 c2 -12 -3 -17 -17 -17 -12 0 -21 6 -21 13
0 31 32 34 38 4z m-60 -35 c2 -14 -3 -24 -15 -28 -10 -3 -26 -10 -36 -15 -28
-15 -32 -4 -13 36 13 28 23 35 39 33 14 -2 23 -11 25 -26z m42 -32 c0 -5 -7
-10 -15 -10 -8 0 -15 5 -15 10 0 6 7 10 15 10 8 0 15 -4 15 -10z m-470 -76
c11 -12 11 -18 -2 -30 -14 -14 -17 -14 -32 1 -13 13 -14 20 -5 31 15 18 24 18
39 -2z m236 1 c7 -18 -13 -45 -33 -45 -17 0 -27 24 -19 45 7 20 45 19 52 0z
m-192 -71 c20 -19 20 -28 1 -44 -17 -14 -43 -7 -51 15 -6 15 11 45 27 45 4 0
15 -7 23 -16z m304 -10 c4 -27 -26 -40 -46 -20 -13 13 -13 18 -2 31 18 21 44
15 48 -11z m-430 -117 c4 -20 -25 -34 -40 -19 -15 15 -1 44 19 40 10 -2 19
-11 21 -21z m227 -17 c0 -20 -6 -26 -28 -28 -18 -2 -29 2 -33 12 -11 28 4 48
33 44 22 -2 28 -8 28 -28z m-315 -71 c0 -4 9 -17 20 -27 20 -19 20 -19 -4 -32
-22 -11 -27 -10 -50 15 -31 33 -30 30 -11 49 15 15 45 12 45 -5z m448 -4 c4
-28 -40 -68 -70 -63 -33 4 -37 46 -6 70 30 24 72 20 76 -7z m-413 -74 c3 -5 1
-12 -5 -16 -5 -3 -10 1 -10 9 0 18 6 21 15 7z m-368 -45 c-4 -9 -11 -16 -17
-16 -17 0 -24 31 -9 41 18 11 34 -5 26 -25z m201 17 c-2 -10 -10 -18 -18 -18
-8 0 -16 8 -18 18 -2 12 3 17 18 17 15 0 20 -5 18 -17z m242 -28 c0 -8 -7 -15
-15 -15 -8 0 -15 7 -15 15 0 8 7 15 15 15 8 0 15 -7 15 -15z m78 -59 c4 -21
-14 -37 -35 -29 -14 5 -18 35 -6 47 12 12 38 1 41 -18z m-438 -21 c0 -8 -7
-15 -15 -15 -8 0 -15 7 -15 15 0 8 7 15 15 15 8 0 15 -7 15 -15z m544 -8 c9
-15 7 -21 -8 -32 -35 -26 -74 13 -44 43 16 16 38 12 52 -11z m-744 -17 c0 -27
-3 -30 -30 -30 -27 0 -30 3 -30 30 0 27 3 30 30 30 27 0 30 -3 30 -30z m946
15 c4 -8 3 -27 0 -41 -6 -21 -11 -25 -39 -22 -27 3 -33 8 -35 32 -2 16 2 32
10 37 21 14 58 10 64 -6z m-896 -50 c0 -8 -7 -15 -15 -15 -16 0 -20 12 -8 23
11 12 23 8 23 -8z m248 -41 c3 -22 -21 -39 -39 -28 -11 6 -12 38 -2 48 13 13
38 1 41 -20z m926 -30 c9 -8 16 -19 16 -23 0 -16 -38 -41 -53 -35 -24 9 -29
35 -11 55 21 23 28 24 48 3z m-1104 -54 c0 -10 -6 -20 -12 -23 -21 -7 -38 4
-38 23 0 10 6 20 13 23 20 7 37 -4 37 -23z m-82 -28 c3 -16 -2 -22 -17 -22
-26 0 -36 17 -20 36 16 19 33 13 37 -14z m1032 -33 c0 -25 -33 -22 -38 4 -2
12 3 17 17 17 15 0 21 -6 21 -21z m-1310 -84 c0 -8 -7 -15 -15 -15 -8 0 -15 7
-15 15 0 8 7 15 15 15 8 0 15 -7 15 -15z m1040 -30 c4 -16 12 -40 19 -53 9
-17 10 -32 3 -52 -8 -23 -7 -32 9 -49 56 -60 96 -198 84 -290 -8 -56 -44 -161
-56 -161 -5 0 -9 -9 -9 -20 0 -11 -4 -20 -10 -20 -5 0 -29 -21 -54 -47 -34
-37 -62 -55 -120 -77 -118 -45 -236 -38 -347 19 -50 26 -135 120 -165 182 -25
52 -28 69 -29 163 0 58 3 114 6 125 13 42 28 71 53 100 14 17 26 33 26 37 0 9
109 91 140 105 63 28 93 34 172 35 66 0 93 -4 128 -21 64 -31 80 -28 80 12 0
41 7 49 39 45 19 -2 27 -11 31 -33z m374 13 c8 -14 7 -21 -6 -34 -30 -30 -75
9 -48 42 16 18 39 15 54 -8z m-1284 -37 c0 -27 -19 -36 -37 -18 -18 18 -9 37
18 37 12 0 19 -7 19 -19z m1088 -50 c12 -11 22 -24 22 -29 0 -12 -66 -26 -80
-17 -22 14 -3 66 25 65 5 -1 20 -9 33 -19z m-1122 -86 c20 -20 23 -28 14 -45
-21 -39 -90 -15 -90 30 0 17 23 39 43 40 4 0 19 -11 33 -25z m1254 -26 c0 -5
-4 -9 -10 -9 -5 0 -10 7 -10 16 0 8 5 12 10 9 6 -3 10 -10 10 -16z m-2094 -67
c1 -2 15 5 30 14 l27 19 -17 -26 c-16 -26 -16 -27 6 -34 l23 -8 -22 -4 c-26
-5 -27 -7 -12 -34 10 -19 9 -20 -11 -9 -12 6 -24 10 -26 8 -2 -3 -8 -36 -13
-74 l-8 -69 -2 68 c-1 69 -11 82 -41 55 -8 -8 -6 -1 4 15 17 28 17 29 -3 34
-25 6 -28 23 -5 23 11 0 15 6 11 19 -3 14 0 17 14 14 16 -4 19 1 20 28 l1 34
11 -35 c6 -19 11 -36 13 -38z m2934 16 c0 -20 15 -24 25 -8 12 19 26 11 15 -9
-8 -16 -6 -21 18 -29 l27 -10 -27 -1 c-31 -1 -33 -4 -17 -32 9 -19 9 -19 -10
-10 -30 16 -31 15 -31 -38 0 -64 -16 -75 -19 -13 -3 56 -6 60 -33 43 -22 -14
-22 -13 -5 12 22 34 21 37 -5 37 -21 1 -22 2 -5 14 10 8 15 20 11 29 -4 12 -1
14 15 10 18 -4 21 -1 21 23 0 23 2 26 10 14 5 -8 10 -23 10 -32z m-2250 -34
c8 -9 8 -18 0 -33 -11 -22 -44 -28 -55 -10 -4 6 -13 8 -21 5 -21 -8 -44 4 -44
23 0 25 4 27 59 28 31 0 55 -5 61 -13z m1472 -19 c0 -5 -5 -11 -11 -13 -6 -2
-11 4 -11 13 0 9 5 15 11 13 6 -2 11 -8 11 -13z m-1344 -17 c17 -17 15 -45 -5
-57 -17 -9 -17 -10 2 -16 65 -21 72 -39 43 -101 -21 -46 -26 -51 -52 -48 -42
4 -41 -1 -33 114 2 30 -1 63 -7 72 -7 11 -6 21 3 32 16 19 33 20 49 4z m1360
-75 c2 -13 -1 -23 -7 -23 -6 0 -21 -11 -33 -25 -27 -31 -54 -32 -64 -3 -5 16
-2 25 11 33 10 5 25 18 34 28 22 24 55 18 59 -10z m130 -90 c-2 -10 -10 -18
-18 -18 -8 0 -16 8 -18 18 -2 12 3 17 18 17 15 0 20 -5 18 -17z m-64 -219 c3
-8 3 -26 0 -40 -5 -18 -13 -24 -35 -24 -32 0 -50 28 -41 62 6 24 67 25 76 2z
m-119 -44 c3 -5 1 -10 -4 -10 -6 0 -11 5 -11 10 0 6 2 10 4 10 3 0 8 -4 11
-10z m35 -40 c0 -5 -7 -10 -15 -10 -8 0 -15 5 -15 10 0 6 7 10 15 10 8 0 15
-4 15 -10z m-1342 -44 c4 -21 -14 -37 -35 -29 -14 5 -18 35 -6 47 12 12 38 1
41 -18z m121 18 c28 -6 32 -10 27 -30 -4 -13 -2 -24 3 -24 15 0 22 -30 11 -51
-15 -28 -30 -24 -78 19 -43 39 -51 59 -30 80 14 14 23 15 67 6z m1220 -86 c9
-26 8 -35 -5 -50 -10 -10 -22 -18 -28 -18 -18 1 -66 48 -66 64 0 19 28 35 62
36 20 0 28 -7 37 -32z m91 -33 c0 -8 -7 -15 -15 -15 -8 0 -15 7 -15 15 0 8 7
15 15 15 8 0 15 -7 15 -15z m-1172 -17 c-6 -18 -28 -21 -28 -4 0 9 7 16 16 16
9 0 14 -5 12 -12z m80 -44 c4 -27 -21 -47 -48 -39 -20 6 -28 44 -13 59 15 15
58 1 61 -20z m251 -11 c11 -21 -3 -53 -24 -53 -26 0 -46 29 -35 51 13 24 46
25 59 2z m284 -105 c4 -13 -2 -28 -18 -44 -30 -30 -40 -30 -70 1 -21 21 -23
28 -14 49 23 50 89 47 102 -6z m-313 -14 c0 -19 -28 -30 -42 -16 -8 8 -8 15 1
26 14 17 41 10 41 -10z m440 -25 c0 -40 -16 -69 -38 -69 -44 0 -57 65 -22 100
28 28 60 11 60 -31z m-350 -20 c0 -12 -29 -24 -37 -16 -3 4 -3 13 0 21 6 16
37 11 37 -5z m-250 -45 c0 -14 -21 -19 -33 -7 -9 9 13 34 24 27 5 -3 9 -12 9
-20z m70 11 c0 -8 -7 -15 -15 -15 -8 0 -15 7 -15 15 0 8 7 15 15 15 8 0 15 -7
15 -15z m-220 -64 c0 -46 -53 -59 -64 -16 -9 35 -1 45 35 45 25 0 29 -4 29
-29z m177 -17 c3 -8 1 -20 -6 -27 -14 -14 -47 15 -37 32 10 16 36 13 43 -5z
m590 -50 c3 -9 -9 -17 -59 -42 -15 -7 -8 18 10 37 18 21 43 23 49 5z m-1481
-92 l5 -33 31 22 31 22 -18 -26 c-14 -22 -14 -28 -4 -31 40 -13 42 -14 17 -15
-29 -1 -36 -19 -16 -39 15 -15 3 -16 -22 -2 -17 9 -20 6 -25 -22 -3 -18 -6
-55 -8 -83 -2 -35 -4 -26 -5 28 -1 42 -5 77 -10 77 -4 0 -19 -8 -32 -17 l-24
-17 22 32 23 31 -27 7 c-28 7 -28 7 -5 16 15 5 21 13 17 23 -4 11 0 15 12 13
14 -2 18 6 21 47 3 28 6 39 8 25 2 -14 6 -40 9 -58z m2200 0 l5 -33 32 23 c31
21 32 21 14 1 -23 -26 -15 -43 21 -44 27 -2 27 -2 2 -6 -35 -7 -46 -19 -30
-38 14 -17 7 -19 -20 -5 -17 9 -20 6 -25 -22 -3 -18 -6 -55 -8 -83 -2 -35 -4
-26 -5 28 -1 42 -5 77 -10 77 -4 0 -19 -8 -32 -17 l-24 -17 22 32 23 31 -27 7
c-28 7 -28 7 -5 16 15 5 21 13 17 23 -4 10 1 15 14 15 17 0 20 7 21 48 1 26 3
36 6 22 2 -14 6 -40 9 -58z m-1075 -912 c4 0 11 5 14 10 12 20 26 10 15 -10
-9 -17 -8 -20 10 -20 11 0 20 -4 20 -10 0 -5 -9 -10 -21 -10 -15 0 -19 -4 -14
-19 5 -15 2 -18 -13 -14 -16 4 -20 -4 -29 -59 l-10 -63 -2 64 -1 63 -27 -18
-28 -17 18 26 c22 34 22 37 -5 37 -22 1 -22 1 -4 15 11 8 16 20 12 30 -4 13
-1 15 14 10 17 -5 20 -2 21 27 l2 33 10 -37 c6 -21 14 -38 18 -38z"/>
</g>
</svg>
